<?xml version="1.0" encoding="utf-8"?>
<!-- Generator: Adobe Illustrator 16.0.0, SVG Export Plug-In . SVG Version: 6.00 Build 0)  -->
<!DOCTYPE svg PUBLIC "-//W3C//DTD SVG 1.1//EN" "http://www.w3.org/Graphics/SVG/1.1/DTD/svg11.dtd">
<svg version="1.1" id="圖層_1" xmlns="http://www.w3.org/2000/svg" xmlns:xlink="http://www.w3.org/1999/xlink" x="0px" y="0px"
	 width="512px" height="512px" viewBox="0 0 512 512" enable-background="new 0 0 512 512" xml:space="preserve">
<path fill="#FFFFFF" d="M481,431.275c0,27.463-22.261,49.724-49.724,49.724H80.725C53.263,480.999,31,458.738,31,431.275V80.723
	C31,53.262,53.263,31,80.725,31h350.552C458.739,31,481,53.262,481,80.723V431.275z"/>
<g>
	<path fill="#00C0CC" d="M326.98,91.537V31H80.725C53.263,31,31,53.262,31,80.723v10.813H326.98z"/>
	<polygon fill="#00C0CC" points="326.98,480.999 326.98,245.161 207.486,301.864 214.605,301.864 214.605,480.999 	"/>
	<path fill="#00C0CC" d="M408.527,347.119H481V80.723C481,53.262,458.739,31,431.276,31h-22.749V347.119z"/>
	<path fill="#00C0CC" d="M408.527,409.273v71.726h22.749c27.463,0,49.724-22.261,49.724-49.724v-22.002H408.527z"/>
	<path fill="#00C0CC" d="M152.45,327.979L31,385.611v45.664c0,27.463,22.263,49.724,49.725,49.724h71.726V327.979z"/>
	<polygon fill="#00C0CC" points="326.98,153.691 31,153.691 31,308.545 326.98,168.095 	"/>
</g>
<g>
	<path fill="#DBDBDB" d="M388.449,268.003c2.115,21.214-10.83,42.827-38.83,58.875c-51.906,29.749-136.447,29.749-187.866,0
		c-27.736-16.048-40.443-37.661-38.165-58.875H93.692v53.047l0.125-0.001c1.332,22.925,16.932,45.567,46.891,62.901
		c62.899,36.392,166.316,36.392,229.817,0c31.846-18.253,47.773-42.394,47.773-66.555h0.004v-49.393H388.449z"/>
	<path fill="#EFEFEF" d="M371.068,206.146c-63.199-36.69-166.616-36.69-229.816,0c-63.198,36.692-63.443,96.488-0.544,132.88
		c62.899,36.393,166.317,36.393,229.817,0C434.022,302.634,434.269,242.838,371.068,206.146z"/>
	<path fill="#9AEFEF" d="M349.619,326.878c-51.906,29.749-136.447,29.749-187.866,0c-51.419-29.75-51.22-78.631,0.444-108.625
		c51.665-29.994,136.205-29.994,187.868,0C401.729,248.247,401.529,297.128,349.619,326.878z"/>
</g>
<g>
	<path fill="#FF2A56" d="M186.257,219.109c-38.521-38.518-38.521-100.969,0.001-139.489c38.518-38.519,100.968-38.519,139.485,0
		c38.521,38.521,38.521,100.971,0,139.489L256,288.855L186.257,219.109z"/>
</g>
<g>
	<path fill="#FFFFFF" d="M208.595,196.769c-26.179-26.182-26.179-68.626,0-94.809c26.182-26.181,68.629-26.181,94.812,0
		c26.18,26.182,26.18,68.627,0,94.809C277.224,222.951,234.776,222.951,208.595,196.769z"/>
</g>
<ellipse transform="matrix(0.711 -0.7032 0.7032 0.711 -222.946 222.9326)" fill="#64639E" cx="159.72" cy="382.676" rx="25.001" ry="28.768"/>
<path fill="#DB6A1F" d="M161.702,372.911c-16.743-16.925-41.893-19.426-57.414-6.158l-0.07-0.077l-59.005,37.459l55.69,69.945
	l54.636-35.003c2.995-1.359,5.807-3.14,8.354-5.352l0.655-0.42l-0.085-0.095c0.359-0.326,0.719-0.651,1.067-0.995
	C180.838,417.076,179.124,390.524,161.702,372.911z"/>
<ellipse transform="matrix(0.711 -0.7032 0.7032 0.711 -287.5792 178.1994)" fill="#B2521D" cx="72.992" cy="438.943" rx="38.985" ry="44.856"/>
<circle fill="#FF2A56" cx="256.001" cy="149.365" r="43.504"/>
</svg>
