<?xml version="1.0" encoding="utf-8"?>
<svg version="1.1" id="圖層_1" xmlns="http://www.w3.org/2000/svg" xmlns:xlink="http://www.w3.org/1999/xlink" x="0px" y="0px"
	 width="512px" height="512px" viewBox="0 0 512 512" enable-background="new 0 0 512 512" xml:space="preserve">
<path fill="#EEEEEE" d="M320,24H112c-8.836,0-16,7.164-16,16v416v8.08V472c0,8.837,7.164,16,16,16h288c8.837,0,16-7.163,16-16v-7.92
	V456V120L320,24z"/>
<path fill="#B3B3B3" d="M324.143,14H112c-14.336,0-26,11.664-26,26v432c0,14.337,11.664,26,26,26h288c14.337,0,26-11.663,26-26
	V115.858L324.143,14z M406,472c0,3.309-2.691,6-6,6H112c-3.309,0-6-2.691-6-6V40c0-3.309,2.691-6,6-6h203.857L406,124.142V472z"/>
<path fill="#B3B3B3" d="M315.167,15.833c0,0,0,75.193,0,86.813c0,11.621,9.731,21.02,24.774,21.02s83.059,0,83.059,0"/>

/*--earth--*/
<path fill="#2196f3" d="M256,144c-67.409,0-122.25,54.841-122.25,122.25S188.591,388.5,256,388.5
	c67.408,0,122.25-54.841,122.25-122.25S323.408,144,256,144z M263.641,226.146c12.943-0.408,25.823-1.97,38.491-4.667
	c2.727,12.203,4.299,24.633,4.691,37.13h-43.183V226.146z M263.641,210.859v-50.236c9.821,3.412,19.351,13.245,26.961,28.129
	c2.935,5.802,5.421,11.82,7.441,18.001C286.716,209.1,275.202,210.473,263.641,210.859L263.641,210.859z M248.359,160.623v50.237
	c-11.563-0.386-23.072-1.759-34.403-4.106c2.021-6.182,4.508-12.199,7.444-18.001C229.01,173.868,238.539,164.035,248.359,160.623
	L248.359,160.623z M248.359,226.146v32.463h-43.184c0.395-12.497,1.966-24.929,4.695-37.13
	C222.536,224.177,235.416,225.738,248.359,226.146L248.359,226.146z M189.89,258.609h-40.583
	c1.327-18.79,7.622-36.888,18.242-52.447c8.743,4.801,17.976,8.653,27.539,11.488C192.041,231.104,190.301,244.823,189.89,258.609z
	 M189.89,273.891c0.41,13.788,2.15,27.505,5.195,40.959c-9.563,2.835-18.795,6.687-27.537,11.487
	c-10.62-15.558-16.915-33.658-18.241-52.446H189.89z M205.176,273.891h43.184v32.461c-12.943,0.409-25.824,1.973-38.49,4.669
	C207.142,298.819,205.57,286.388,205.176,273.891z M248.359,321.641v50.238c-9.82-3.414-19.35-13.246-26.959-28.128
	c-2.936-5.803-5.423-11.818-7.444-17.999C225.287,323.401,236.795,322.025,248.359,321.641L248.359,321.641z M263.641,371.879
	v-50.238c11.562,0.385,23.075,1.758,34.402,4.107c-2.021,6.181-4.507,12.196-7.441,18
	C282.991,358.633,273.462,368.464,263.641,371.879L263.641,371.879z M263.641,306.353v-32.462h43.183
	c-0.394,12.497-1.967,24.929-4.696,37.13C289.464,308.324,276.583,306.761,263.641,306.353L263.641,306.353z M322.11,273.891h40.583
	c-1.329,18.788-7.623,36.889-18.243,52.446c-8.742-4.801-17.976-8.652-27.538-11.487
	C319.959,301.396,321.698,287.679,322.11,273.891z M322.11,258.609c-0.411-13.787-2.149-27.505-5.195-40.958
	c9.564-2.835,18.797-6.687,27.538-11.488c10.619,15.559,16.912,33.657,18.24,52.447H322.11z M334.818,194.011
	c-7.025,3.652-14.375,6.642-21.954,8.927c-2.318-7.266-5.215-14.337-8.657-21.142c-2.701-5.348-5.869-10.451-9.462-15.249
	C310.025,172.52,323.735,181.915,334.818,194.011z M217.252,166.546c-3.591,4.798-6.756,9.901-9.459,15.249
	c-3.444,6.805-6.339,13.876-8.658,21.142c-7.58-2.285-14.929-5.275-21.954-8.927C188.266,181.915,201.973,172.52,217.252,166.546z
	 M177.182,338.489c7.025-3.653,14.374-6.64,21.954-8.928c2.319,7.268,5.214,14.338,8.658,21.144
	c2.703,5.347,5.868,10.45,9.459,15.248C201.973,359.979,188.266,350.585,177.182,338.489L177.182,338.489z M294.745,365.953
	c3.593-4.798,6.761-9.901,9.462-15.248c3.442-6.806,6.339-13.876,8.657-21.144c7.579,2.288,14.929,5.274,21.954,8.928
	C323.735,350.585,310.025,359.979,294.745,365.953L294.745,365.953z"/>

/*--text-board--*/
<path fill="#2196f3" d="M88,296h336c8.837,0,16,7.164,16,16v128c0,8.837-7.163,16-16,16H88c-8.836,0-16-7.163-16-16V312
	C72,303.164,79.164,296,88,296z"/>

/*--text--*/
<text x="50%" fill="#FFFFFF" y="410" style="font-size:100px; font-family: Arial; font-weight: bold; text-anchor:middle;">GPX</text>
</svg>